<svg xmlns="http://www.w3.org/2000/svg" viewBox="0 0 32 32">
  <defs>
    <linearGradient id="grad1" x1="0%" y1="0%" x2="100%" y2="100%">
      <stop offset="0%" style="stop-color:#667eea;stop-opacity:1" />
      <stop offset="100%" style="stop-color:#764ba2;stop-opacity:1" />
    </linearGradient>
  </defs>
  
  <!-- Background circle -->
  <circle cx="16" cy="16" r="15" fill="url(#grad1)" stroke="#ffffff" stroke-width="2"/>
  
  <!-- Letter S -->
  <path d="M12 8c0-2.2 1.8-4 4-4s4 1.8 4 4c0 1.1-0.4 2.1-1.1 2.8-0.7 0.7-1.7 1.2-2.9 1.2-1.2 0-2.2-0.5-2.9-1.2C12.4 10.1 12 9.1 12 8zm0 8c0 2.2 1.8 4 4 4s4-1.8 4-4c0-1.1-0.4-2.1-1.1-2.8-0.7-0.7-1.7-1.2-2.9-1.2-1.2 0-2.2 0.5-2.9 1.2C12.4 13.9 12 14.9 12 16z" fill="#ffffff"/>
  
  <!-- Code brackets -->
  <path d="M8 12l3-3v2l-1 1 1 1v2l-3-3zm16 0l-3-3v2l1 1-1 1v2l3-3z" fill="#ffffff" opacity="0.8"/>
</svg>
